<?xml version="1.0" standalone="no"?><!-- Generator: Gravit.io --><svg xmlns="http://www.w3.org/2000/svg" xmlns:xlink="http://www.w3.org/1999/xlink" style="isolation:isolate" viewBox="0 0 16 16" width="16" height="16"><defs><clipPath id="_clipPath_aMtqq4QJk1dZ5TOwPMtCJ1Xv7v5AenfK"><rect width="16" height="16"/></clipPath></defs><g clip-path="url(#_clipPath_aMtqq4QJk1dZ5TOwPMtCJ1Xv7v5AenfK)"><path d=" M 14.29 1 L 3 12.29 L 3 12.293 L 1.837 13.456 L 1.834 13.456 L 1 14.29 L 1 11.461 L 1 8.402 L 3 8.402 L 3 9.461 L 11.461 1 L 14.29 1 Z " fill="rgb(141,165,243)"/><path d=" M 1.71 15 L 13 3.71 L 13 3.707 L 14.163 2.544 L 14.166 2.544 L 15 1.71 L 15 4.539 L 15 7.598 L 13 7.598 L 13 6.539 L 4.539 15 L 1.71 15 Z " fill="rgb(141,165,243)"/><path d=" M 13.97 8.6 L 12.35 8.6 L 11.845 9.105 C 11.66 9.751 11.313 10.347 10.83 10.83 C 10.347 11.313 9.751 11.66 9.105 11.845 L 7.029 13.921 C 7.348 13.973 7.673 14 8 14 C 9.59 14 11.12 13.37 12.24 12.24 C 13.227 11.262 13.833 9.971 13.97 8.6 L 13.97 8.6 Z  M 6.895 4.155 L 6.895 4.155 C 6.249 4.34 5.653 4.687 5.17 5.17 C 4.687 5.653 4.34 6.249 4.155 6.895 L 3.65 7.4 L 2.03 7.4 C 2.167 6.029 2.773 4.738 3.76 3.76 C 4.88 2.63 6.41 2 8 2 C 8.327 2 8.652 2.027 8.971 2.079 L 6.895 4.155 Z " fill-rule="evenodd" fill="rgb(141,165,243)"/></g></svg>