<?xml version="1.0" standalone="no"?><!-- Generator: Gravit.io --><svg xmlns="http://www.w3.org/2000/svg" xmlns:xlink="http://www.w3.org/1999/xlink" style="isolation:isolate" viewBox="0 0 16 16" width="16" height="16"><defs><clipPath id="_clipPath_Qp8Xf2c29PI9uee8CnAO4cCJvAJmgeq3"><rect width="16" height="16"/></clipPath></defs><g clip-path="url(#_clipPath_Qp8Xf2c29PI9uee8CnAO4cCJvAJmgeq3)"><rect x="13" y="1" width="2" height="10" transform="matrix(1,0,0,1,0,0)" fill="rgb(141,165,243)"/><path d=" M 10.429 7.286 C 10.429 7.72 10.077 8.071 9.643 8.071 C 9.209 8.071 8.857 7.72 8.857 7.286 L 8.857 5.714 C 8.857 5.28 9.209 4.929 9.643 4.929 C 10.077 4.929 10.429 5.28 10.429 5.714 L 10.429 7.286 L 10.429 7.286 Z  M 2.571 5.714 C 2.571 5.28 2.923 4.929 3.357 4.929 C 3.791 4.929 4.143 5.28 4.143 5.714 L 4.143 7.286 C 4.143 7.72 3.791 8.071 3.357 8.071 C 2.923 8.071 2.571 7.72 2.571 7.286 L 2.571 5.714 L 2.571 5.714 Z  M 6.103 12 L 4.143 12 C 2.407 12 1 10.593 1 8.857 L 1 4.143 C 1 2.407 2.407 1 4.143 1 L 4.143 1 L 8.857 1 C 10.593 1 12 2.407 12 4.143 L 12 8.857 C 12 10.081 11.3 11.142 10.278 11.659 C 10.102 11.488 10 11.248 10 10.984 L 10 9.984 L 8.906 9.984 L 8.906 9.984 C 8.991 9.713 8.927 9.406 8.712 9.192 C 8.409 8.889 7.919 8.885 7.611 9.182 C 6.997 9.796 6.003 9.796 5.389 9.182 C 5.081 8.885 4.591 8.889 4.288 9.192 C 3.984 9.495 3.98 9.985 4.278 10.293 C 4.765 10.781 5.373 11.074 6.006 11.167 C 6.014 11.452 6.048 11.73 6.103 12 Z " fill-rule="evenodd" fill="rgb(141,165,243)"/><path d=" M 13 7.52 C 14.195 8.212 15 9.505 15 10.984 C 15 13.192 13.208 14.984 11 14.984 C 8.792 14.984 7 13.192 7 10.984 L 9 10.984 C 9 12.088 9.896 12.984 11 12.984 C 12.104 12.984 13 12.088 13 10.984 L 13 7.52 Z " fill="rgb(141,165,243)"/></g></svg>